<svg width="178" height="108" viewBox="0 0 178 108" fill="none" xmlns="http://www.w3.org/2000/svg">
<path d="M33.0522 25.3686C35.6613 25.4129 37.619 25.6462 39.5567 26.0928C39.9547 26.1853 40.3567 26.2859 40.7587 26.3503C41.0602 26.3986 41.3497 26.1491 41.3738 25.8353C41.3979 25.5014 41.3819 25.1634 41.3738 24.8295C41.2814 21.3132 41.7396 17.8813 43.1386 14.6385C46.2502 7.41275 51.5929 2.73369 59.2391 0.782398C60.6462 0.424327 62.0974 0.239256 63.5406 0.0461389C64.1999 -0.0423731 64.8833 0.017976 65.5547 0.0501621C70.009 0.287535 74.1255 1.59912 77.8884 4.00102C78.0451 4.1016 78.2059 4.20218 78.3668 4.29069C78.7567 4.4999 79.1547 4.50795 79.5446 4.29069C79.8703 4.10562 80.1838 3.90446 80.4974 3.70732C84.1517 1.40198 88.1436 0.142697 92.4532 0.0582087C97.5627 -0.0423731 102.262 1.34968 106.463 4.30679C107.504 5.03902 108.485 5.83965 109.39 6.74086C111.11 8.45478 112.859 10.1405 114.576 11.8585C115.364 12.6511 115.673 12.7396 116.694 12.0958C119.05 10.6153 121.583 9.54106 124.304 8.9255C127.943 8.10073 131.565 8.20131 135.179 9.05425C139.472 10.0681 143.139 12.2045 146.254 15.2943C149.76 18.7664 153.229 22.2667 156.718 25.7549C159.834 28.8729 162.962 31.9829 166.061 35.117C166.982 36.0464 167.862 37.012 168.706 38.0138C171.862 41.7554 173.531 46.1126 174.061 50.9607C174.347 53.5677 174.041 56.0823 173.37 58.6049C172.682 61.1918 171.721 63.638 170.274 65.891C170.174 66.0479 170.073 66.2089 170.005 66.3819C169.852 66.752 169.876 67.1221 170.129 67.44C170.339 67.7015 170.576 67.9429 170.801 68.1923C173.683 71.3466 175.621 74.9876 176.542 79.1799C178.262 86.985 175.758 95.7839 169.414 101.509C165.719 104.84 161.414 106.788 156.493 107.431C150.934 108.155 145.828 106.852 141.056 104.016C140.831 103.883 140.594 103.762 140.397 103.593C139.778 103.054 139.199 103.171 138.568 103.593C137.012 104.631 135.352 105.488 133.599 106.148C130.109 107.463 126.523 107.89 122.817 107.459C119.078 107.025 115.637 105.794 112.473 103.77C112.441 103.75 112.409 103.73 112.381 103.706C111.677 103.118 111.014 103.167 110.25 103.67C107.987 105.154 105.543 106.257 102.922 106.936C98.7285 108.027 94.5677 107.83 90.427 106.631C88.224 105.991 86.1456 105.066 84.2562 103.77C83.3879 103.179 82.7125 103.175 81.8321 103.762C78.9979 105.653 75.8662 106.84 72.4974 107.347C66.7688 108.212 61.4381 107.077 56.4974 104.064C56.1798 103.871 55.8622 103.67 55.5567 103.456C55.0743 103.114 54.5999 103.082 54.1055 103.432C53.8602 103.605 53.607 103.762 53.3537 103.919C50.5999 105.645 47.6291 106.84 44.413 107.315C37.1125 108.397 30.6643 106.482 25.0643 101.678C24.7829 101.437 24.5296 101.159 24.2643 100.893C18.4794 95.108 12.6824 89.3346 6.91756 83.525C3.78992 80.3748 1.72359 76.5929 0.790929 72.2558C-0.282437 67.267 0.119573 62.3747 2.18188 57.6634C2.25827 57.4904 2.34269 57.3255 2.40299 57.1484C3.00198 55.3782 4.13967 53.9499 5.29344 52.5217C6.47133 51.0612 7.75374 49.7094 9.24519 48.5749C9.98891 48.0116 10.3025 47.2874 10.3829 46.3741C10.5919 44.0527 11.1829 41.8158 12.0794 39.6673C15.0422 32.5663 21.6231 27.0101 29.7718 25.7227C31.0582 25.5175 32.3648 25.441 33.0482 25.3726L33.0522 25.3686ZM167.086 53.3062C167.03 52.6062 166.913 51.4555 166.845 50.3049C166.801 49.5887 166.664 48.9048 166.455 48.2208C165.627 45.5252 164.216 43.1837 162.222 41.1881C155.223 34.1876 148.232 27.1791 141.225 20.1866C139.038 18.002 136.429 16.5255 133.43 15.7651C131.645 15.3145 129.82 15.0771 127.991 15.2823C126.17 15.4834 124.409 16.0105 122.737 16.783C122.234 17.0163 121.776 17.3543 121.326 17.6842C121.056 17.8813 121.032 18.2152 121.249 18.4808C121.486 18.7704 121.752 19.032 122.017 19.2935C132.067 29.3718 142.121 39.446 152.168 49.5284C152.614 49.975 153.052 50.4457 153.43 50.9526C154.97 53.0206 153.615 56.0702 151.114 56.3237C150.001 56.4363 149.052 56.1225 148.212 55.4184C147.955 55.2012 147.725 54.9517 147.488 54.7144C141.141 48.3817 134.793 42.0531 128.457 35.7084C127.388 34.6382 126.194 33.7571 124.851 33.0812C121.293 31.2949 117.547 30.7316 113.647 31.5846C107.058 33.0249 101.559 38.408 100.763 46.0643C100.349 50.0232 101.326 53.7045 103.597 57.0076C104.32 58.0577 105.161 59.0072 106.061 59.9044C112.224 66.0479 118.387 72.1995 124.546 78.3511C125.603 79.4052 126.64 80.4794 127.677 81.5576C127.906 81.799 128.119 82.0686 128.284 82.3583C128.803 83.2796 128.932 84.2613 128.578 85.2711C127.878 87.2707 125.595 88.3208 123.553 87.0454C122.986 86.6913 122.499 86.2166 121.977 85.7901C121.776 85.6252 121.595 85.4321 121.386 85.2792C121.157 85.1102 120.827 85.2027 120.747 85.4803C120.61 85.943 120.501 86.4178 120.417 86.8925C120.284 87.6288 120.22 88.3731 120.063 89.1013C119.561 91.4147 118.773 93.6234 117.595 95.6834C117.297 96.2024 117.004 96.7254 116.743 97.2605C116.546 97.6628 116.638 97.9645 116.992 98.2462C117.108 98.3387 117.237 98.4151 117.37 98.4876C119.709 99.8313 122.218 100.596 124.928 100.668C127.83 100.745 130.54 100.033 133.108 98.7008C138.749 95.7759 142.725 89.3467 141.667 81.7145C141.169 78.1258 139.549 75.0399 136.996 72.4771C130.222 65.6738 123.428 58.8905 116.642 52.0992C115.983 51.4394 115.356 50.7474 114.704 50.0755C114.278 49.633 114.037 49.0979 113.824 48.5346C113.43 47.5006 114.061 45.4327 115.364 44.7568C116.638 44.097 118.467 44.2579 119.569 45.2034C120.051 45.6177 120.509 46.0603 120.956 46.5069C126.978 52.5297 133.004 58.5485 139.014 64.5835C140.787 66.3617 142.845 67.6653 145.197 68.5102C147.44 69.3188 149.756 69.7051 152.132 69.4436C156.763 68.9326 160.614 66.9009 163.524 63.2437C165.715 60.4918 167.078 57.3818 167.078 53.3223L167.086 53.3062ZM85.3698 83.0503C85.3416 79.6385 83.7537 75.748 80.5899 72.5455C76.3647 68.2647 72.0954 64.0282 67.8381 59.7756C63.609 55.5512 59.3718 51.3348 55.1346 47.1184C54.8733 46.8569 54.5959 46.6035 54.2944 46.3862C54.0251 46.1931 53.6954 46.2454 53.4904 46.5029C53.3055 46.7322 53.1487 46.9937 53.008 47.2512C51.814 49.4278 51.2994 51.7935 51.2271 54.2436C51.0944 58.9348 52.7627 62.958 56.0351 66.2813C60.409 70.727 64.8472 75.1124 69.2532 79.5299C69.9406 80.2179 70.5919 80.9381 71.2713 81.6301C71.9989 82.3703 72.2401 83.2595 72.2683 84.2774C72.3245 86.5586 69.824 87.9587 68.1838 87.4558C67.4924 87.2425 66.8652 86.9529 66.3426 86.4419C65.3296 85.4481 64.2884 84.4785 63.2874 83.4767C54.0492 74.2232 44.815 64.9657 35.5849 55.7041C34.3346 54.4488 32.9397 53.3947 31.3799 52.5659C27.1226 50.3049 22.6683 49.9669 18.1578 51.5682C10.013 54.4609 5.92861 62.6804 7.48841 70.4333C8.10751 73.5031 9.51454 76.2027 11.7336 78.4356C17.5789 84.3216 23.4361 90.1916 29.2974 96.0575C29.8241 96.5846 30.403 97.0633 31.01 97.4938C34.2623 99.8153 37.9004 100.837 41.8803 100.612C44.2683 100.479 46.4874 99.7267 48.5537 98.5318C49.1085 98.21 49.1849 97.8358 48.7829 97.3369C48.409 96.8702 47.9949 96.4397 47.5728 96.0173C39.601 88.0351 31.6251 80.0529 23.6492 72.0708C22.9095 71.3305 22.1939 70.5661 21.4743 69.8097C21.2934 69.6206 21.1165 69.4275 20.9638 69.2183C20.003 67.8866 19.9588 65.9996 21.2211 64.6961C22.399 63.477 24.2884 63.3523 25.6191 64.33C26.1296 64.7042 26.612 65.1226 27.0582 65.5732C36.9075 75.4342 46.7447 85.3033 56.5939 95.1603C57.3577 95.9247 58.1577 96.6691 59.022 97.3088C63.3075 100.491 68.0874 101.489 73.2251 100.057C80.9276 97.9122 85.3858 91.1652 85.3617 83.0503H85.3698ZM116.32 24.1375C116.284 23.4978 115.914 23.2604 115.637 22.9788C111.935 19.2291 108.276 15.4392 104.509 11.7579C100.461 7.79899 95.5446 6.34256 90.0009 7.34838C81.0803 8.96976 74.8572 17.8934 76.9999 27.2555C77.619 29.9551 78.825 32.3892 80.7507 34.421C81.8039 35.5314 82.8733 36.6298 83.9507 37.716C84.5175 38.2873 84.9678 38.919 85.1446 39.7076C85.4703 41.1479 85.1085 42.3991 83.9386 43.3205C82.8411 44.1814 81.611 44.2498 80.3527 43.6624C79.7336 43.3728 79.2351 42.9302 78.7567 42.4514C73.5306 37.2172 68.2964 31.9869 63.0743 26.7486C62.7326 26.4066 62.419 26.0284 62.1256 25.6462C61.4381 24.7531 61.3376 23.7311 61.5426 22.661C61.7597 21.5264 63.2874 19.9935 64.8472 20.1223C65.82 20.2027 66.6401 20.5849 67.3718 21.2005C67.8542 21.6109 68.3286 22.0373 68.823 22.4316C69.1004 22.6529 69.4301 22.5322 69.5105 22.1741C69.6311 21.627 69.7235 21.0758 69.7999 20.5206C70.2703 17.145 71.3316 13.9828 73.1647 11.0981C73.225 11.0015 73.2934 10.913 73.3456 10.8164C73.7316 10.1244 73.6552 9.76637 72.9919 9.29967C72.6864 9.08643 72.3567 8.90941 72.019 8.74848C67.3195 6.53165 62.616 6.43107 57.8602 8.62376C50.6964 11.9309 46.817 19.9975 48.9356 27.8912C49.7316 30.8483 51.3075 33.3588 53.4542 35.5153C58.7045 40.7818 63.9668 46.0321 69.221 51.2906C69.9085 51.9785 70.5798 52.6826 71.2753 53.3585C74.5235 56.5208 78.415 58.1945 82.9497 58.279C84.023 58.2991 85.1004 58.0899 86.1738 57.9652C86.7286 57.9008 87.2833 57.8203 87.8301 57.6916C90.0411 57.1806 91.822 55.8972 93.5265 54.477C94.1657 53.9419 94.3667 53.2821 94.218 52.4774C94.0894 51.7814 93.9889 51.0773 93.9084 50.3733C93.6351 48.0559 93.7034 45.7505 94.1175 43.4532C94.6522 40.476 95.7537 37.716 97.3175 35.1371C97.4542 34.9118 97.6069 34.6986 97.7275 34.4693C97.9728 33.9945 97.9808 33.5399 97.5788 33.1295C97.422 32.9686 97.2733 32.7996 97.1165 32.6387C95.1587 30.6351 93.2009 28.6315 91.2391 26.6279C90.9778 26.3624 90.6964 26.1129 90.4592 25.8232C89.5507 24.7289 89.3858 23.1116 90.0371 21.9368C91.1306 19.9613 93.4461 19.7199 94.8612 20.6493C95.2632 20.9149 95.6411 21.2287 95.9828 21.5706C98.0612 23.6145 100.119 25.6784 102.194 27.7222C103.062 28.5792 103.324 28.6033 104.333 27.9958C104.429 27.9395 104.522 27.8751 104.618 27.8188C107.73 25.9359 111.078 24.7531 114.704 24.3749C115.215 24.3226 115.726 24.2381 116.32 24.1536V24.1375ZM92.5456 84.8849C92.4411 85.3798 92.3527 85.6976 92.3125 86.0195C92.2281 86.6471 92.2079 87.2868 92.0954 87.9104C91.5366 90.9922 90.4512 93.8769 88.8632 96.5725C88.1557 97.7795 88.1959 97.9726 89.422 98.6606C92.417 100.346 95.6492 100.938 99.0341 100.543C101.86 100.218 104.429 99.1675 106.769 97.518C111.999 93.8286 114.805 86.9368 113.141 80.1857C112.397 77.1683 110.861 74.6014 108.698 72.4007C106.423 70.0833 104.132 67.7779 101.82 65.4967C100.542 64.2375 99.3155 62.9339 98.214 61.5137C97.5024 60.5964 97.3738 60.5883 96.3687 61.1596C95.3959 61.7108 94.4431 62.3063 93.4421 62.8052C90.7406 64.153 87.8703 64.9134 84.8713 65.2111C84.7225 65.2272 84.5698 65.2232 84.425 65.2513C83.9869 65.3278 83.8381 65.6255 84.0873 65.9715C84.2843 66.2451 84.5014 66.5026 84.7346 66.7399C85.7999 67.8383 86.8652 68.9407 87.9507 70.0189C91.3878 73.4507 94.829 76.8705 98.2703 80.2984C98.6924 80.7208 99.1185 81.1432 99.4964 81.6019C99.7778 81.9439 100.039 82.3221 100.232 82.7163C101.297 84.909 99.7175 87.5443 97.1446 87.5C96.1718 87.4839 95.3235 87.15 94.5999 86.4942C94.1577 86.0919 93.7235 85.6815 93.2693 85.2953C93.1085 85.1585 92.9034 85.078 92.5456 84.8768V84.8849ZM170.15 84.3377C170.021 83.2273 169.941 82.1088 169.756 81.0065C169.233 77.8924 167.814 75.221 165.631 72.9559C164.73 72.0185 164.642 72.0144 163.549 72.6582C163.516 72.6783 163.484 72.6944 163.452 72.7145C160.32 74.6376 156.944 75.8486 153.289 76.2952C152.847 76.3475 152.401 76.4079 151.963 76.4964C151.693 76.5487 151.569 76.8906 151.73 77.12C151.902 77.3614 152.095 77.5907 152.304 77.8039C153.446 78.9868 154.592 80.1656 155.746 81.3404C156.252 81.8554 156.654 82.4267 156.867 83.1227C157.41 84.8889 156.489 87.0655 154.314 87.4799C153.064 87.7173 152.035 87.3351 151.106 86.5505C150.793 86.285 150.523 85.9671 150.214 85.7016C149.912 85.4401 149.635 84.9814 149.197 85.1223C148.666 85.2912 148.799 85.8746 148.759 86.289C148.385 90.0347 147.191 93.4987 145.273 96.7254C144.646 97.7835 144.718 98.0128 145.844 98.6284C149.213 100.463 152.791 101.083 156.566 100.387C164.811 98.8658 170.109 91.644 170.154 84.3377H170.15ZM44.1396 53.7649C44.1839 53.5275 44.2361 53.3505 44.2522 53.1694C44.5899 49.118 45.816 45.3603 47.9909 41.9163C48.0914 41.7594 48.1879 41.5985 48.2763 41.4376C48.5215 40.999 48.4773 40.5806 48.1718 40.1863C48.0793 40.0697 47.9989 39.9409 47.8904 39.8363C46.62 38.577 45.4422 37.193 44.0472 36.0866C40.4251 33.21 36.2964 31.8541 31.6331 32.4616C28.7266 32.8398 26.0854 33.906 23.7618 35.6964C21.4784 37.4586 19.6492 39.5909 18.5919 42.3187C18.4593 42.6647 18.3306 43.0187 18.2382 43.3768C18.1336 43.7831 18.3547 44.0567 18.7567 44.0286C19.2753 43.9964 19.798 43.9441 20.3125 43.8676C22.5437 43.5377 24.7748 43.5739 27.002 43.8918C31.9145 44.5958 36.1638 46.6839 39.7778 50.0755C40.8391 51.0733 41.8643 52.1033 42.9095 53.1171C43.1226 53.3223 43.3396 53.5356 43.5929 53.6925C43.7256 53.7769 43.9306 53.7448 44.1396 53.7689V53.7649Z" fill="white"/>
<path d="M128.626 67.6613C133.297 67.6613 137.084 63.8746 137.084 59.2034C137.084 54.5322 133.297 50.7454 128.626 50.7454C123.955 50.7454 120.168 54.5322 120.168 59.2034C120.168 63.8746 123.955 67.6613 128.626 67.6613Z" fill="white"/>
<path d="M128.441 65.4885C131.993 65.4885 134.873 62.6064 134.873 59.0512C134.873 55.4961 131.993 52.614 128.441 52.614C124.889 52.614 122.009 55.4961 122.009 59.0512C122.009 62.6064 124.889 65.4885 128.441 65.4885Z" fill="#F0803C"/>
<path d="M37.1259 88.4217C41.7971 88.4217 45.5839 84.635 45.5839 79.9638C45.5839 75.2926 41.7971 71.5058 37.1259 71.5058C32.4547 71.5058 28.668 75.2926 28.668 79.9638C28.668 84.635 32.4547 88.4217 37.1259 88.4217Z" fill="white"/>
<path d="M37.4097 86.687C40.9621 86.687 43.8419 83.805 43.8419 80.2498C43.8419 76.6946 40.9621 73.8126 37.4097 73.8126C33.8573 73.8126 30.9775 76.6946 30.9775 80.2498C30.9775 83.805 33.8573 86.687 37.4097 86.687Z" fill="#F0803C"/>
</svg>