<svg width="981" height="981" viewBox="0 0 981 981" fill="none" xmlns="http://www.w3.org/2000/svg">
<path d="M491.801 0.901077C492.36 0.902104 492.918 0.904085 493.477 0.906941L493.274 40.0022C492.759 39.9995 492.244 39.9977 491.729 39.9968C491.214 39.9958 490.7 39.9957 490.185 39.9965L490.126 0.90078C490.684 0.899977 491.243 0.900049 491.801 0.901077Z" fill="white"/>
<path d="M563.203 6.19862C562.108 6.03661 561.011 5.87826 559.914 5.72352L554.457 44.4366C555.467 44.5789 556.476 44.7246 557.483 44.8737L563.203 6.19862Z" fill="white"/>
<path d="M628.27 20.4175C629.336 20.7281 630.4 21.0423 631.463 21.36L620.266 58.8181C619.289 58.526 618.31 58.237 617.33 57.9514L628.27 20.4175Z" fill="white"/>
<path d="M696.839 46.1474C695.832 45.6803 694.823 45.2165 693.812 44.7561L677.605 80.3343C678.535 80.7578 679.463 81.1844 680.389 81.614L696.839 46.1474Z" fill="white"/>
<path d="M756.547 79.0867C757.031 79.3999 757.515 79.714 757.998 80.0288L736.659 112.787C735.803 112.229 734.945 111.674 734.084 111.122L755.2 78.2196C755.65 78.5079 756.098 78.797 756.547 79.0867Z" fill="white"/>
<path d="M813.72 122.262C812.885 121.53 812.047 120.801 811.207 120.074L785.638 149.65C786.411 150.318 787.183 150.99 787.952 151.664L813.72 122.262Z" fill="white"/>
<path d="M860.723 169.438C861.452 170.276 862.178 171.117 862.902 171.96L833.233 197.42C832.567 196.644 831.898 195.87 831.227 195.098L860.723 169.438Z" fill="white"/>
<path d="M904.55 228.12C903.954 227.183 903.354 226.248 902.751 225.315L869.915 246.534C870.469 247.392 871.021 248.252 871.57 249.115L904.55 228.12Z" fill="white"/>
<path d="M936.408 286.599C936.871 287.608 937.331 288.618 937.788 289.631L902.15 305.707C901.73 304.775 901.307 303.846 900.881 302.918L936.408 286.599Z" fill="white"/>
<path d="M961.885 355.262C961.766 354.848 961.646 354.434 961.526 354.02C961.337 353.368 961.146 352.716 960.954 352.066L923.455 363.124C923.744 364.103 924.029 365.082 924.311 366.064L961.885 355.262Z" fill="white"/>
<path d="M976.327 423.672C976.177 422.573 976.022 421.476 975.865 420.381L937.169 425.958C937.314 426.966 937.456 427.976 937.595 428.986L976.327 423.672Z" fill="white"/>
<path d="M0.901078 489.999C0.902105 489.441 0.904067 488.882 0.906962 488.324L40.0022 488.527C39.9995 489.041 39.9974 491.1 39.9965 491.616C39.9957 491.101 39.9956 492.131 39.9965 491.616L0.9008 491.674C0.899959 491.116 0.900051 490.558 0.901078 489.999Z" fill="white"/>
<path d="M941.804 491.729C941.805 491.214 941.805 490.7 941.804 490.185L980.9 490.126C980.901 490.684 980.9 491.243 980.899 491.801C980.898 492.36 980.896 492.918 980.894 493.476L941.798 493.274L941.801 492.652C941.802 492.345 941.803 492.037 941.804 491.729Z" fill="white"/>
<path d="M423.672 5.47298C422.573 5.62368 421.476 5.778 420.381 5.93594L425.958 44.6318C426.966 44.4865 427.976 44.3445 428.986 44.2058L423.672 5.47298Z" fill="white"/>
<path d="M352.066 20.8461C353.129 20.5324 354.195 20.2221 355.262 19.9154L366.064 57.4893C365.083 57.7714 364.103 58.0566 363.124 58.3452L352.066 20.8461Z" fill="white"/>
<path d="M289.631 44.0127C288.618 44.4695 287.607 44.9295 286.599 45.3929L302.918 80.9198C303.846 80.4936 304.775 80.0704 305.707 79.6504L289.631 44.0127Z" fill="white"/>
<path d="M225.315 79.0492C226.248 78.4465 227.183 77.8468 228.12 77.2503L249.115 110.23C248.252 110.779 247.392 111.331 246.534 111.886L225.315 79.0492Z" fill="white"/>
<path d="M171.96 118.899C171.117 119.622 170.276 120.348 169.438 121.077L195.099 150.574C195.87 149.902 196.644 149.234 197.42 148.568L171.96 118.899Z" fill="white"/>
<path d="M120.074 170.594C120.801 169.753 121.53 168.915 122.262 168.08L151.664 193.849C150.99 194.618 150.318 195.389 149.65 196.163L120.074 170.594Z" fill="white"/>
<path d="M80.0288 223.802C79.4227 224.732 78.8196 225.665 78.2196 226.6L111.122 247.716C111.674 246.856 112.229 245.998 112.787 245.141L80.0288 223.802Z" fill="white"/>
<path d="M44.7561 287.988C45.2165 286.977 45.6803 285.969 46.1473 284.962L81.614 301.411C81.1844 302.338 80.7578 303.266 80.3343 304.195L44.7561 287.988Z" fill="white"/>
<path d="M21.36 350.338C21.0423 351.4 20.7281 352.465 20.4175 353.53L57.9514 364.47C58.2371 363.49 58.526 362.512 58.8181 361.534L21.36 350.338Z" fill="white"/>
<path d="M5.72354 421.887C5.87826 420.789 6.03662 419.693 6.1986 418.597L44.8737 424.317C44.7246 425.325 44.5789 426.334 44.4366 427.344L5.72354 421.887Z" fill="white"/>
<path d="M976.077 559.914C975.922 561.011 975.764 562.108 975.602 563.203L936.927 557.483C937.004 556.958 937.081 556.433 937.157 555.908C937.227 555.424 937.296 554.941 937.364 554.457L976.077 559.914Z" fill="white"/>
<path d="M960.819 630.191C960.693 630.615 960.567 631.039 960.44 631.463L922.983 620.266C923.275 619.289 923.563 618.31 923.849 617.33L961.383 628.27C961.196 628.911 961.008 629.551 960.819 630.191Z" fill="white"/>
<path d="M935.653 696.839C936.12 695.832 936.584 694.823 937.044 693.812L901.466 677.605C901.043 678.535 900.616 679.463 900.187 680.389L935.653 696.839Z" fill="white"/>
<path d="M903.581 755.2C902.981 756.135 902.378 757.068 901.772 757.998L869.013 736.659C869.159 736.435 869.305 736.211 869.451 735.986L869.744 735.534C869.905 735.284 870.067 735.035 870.228 734.785C870.378 734.551 870.528 734.318 870.678 734.084L903.581 755.2Z" fill="white"/>
<path d="M859.538 813.72C860.27 812.885 861 812.047 861.726 811.207L832.151 785.638C831.802 786.042 831.452 786.445 831.101 786.848C830.78 787.216 830.459 787.584 830.137 787.952L859.538 813.72Z" fill="white"/>
<path d="M812.362 860.723C811.524 861.452 810.684 862.178 809.841 862.902L784.381 833.233C785.157 832.567 785.931 831.898 786.702 831.227L812.362 860.723Z" fill="white"/>
<path d="M755.03 903.688C755.221 903.566 755.412 903.443 755.603 903.321C755.897 903.131 756.191 902.941 756.486 902.751L735.267 869.914L734.639 870.319C734.473 870.426 734.307 870.533 734.141 870.64C733.656 870.951 733.171 871.261 732.686 871.57L753.681 904.55C754.131 904.264 754.581 903.976 755.03 903.688Z" fill="white"/>
<path d="M695.202 936.408C694.193 936.871 693.182 937.331 692.17 937.788L676.094 902.15C677.025 901.73 677.955 901.307 678.883 900.881L695.202 936.408Z" fill="white"/>
<path d="M626.539 961.885C627.606 961.578 628.671 961.268 629.735 960.954L618.676 923.455C618.08 923.631 617.483 923.806 616.886 923.979C616.679 924.039 616.471 924.1 616.263 924.159C616.088 924.21 615.912 924.261 615.737 924.311L626.539 961.885Z" fill="white"/>
<path d="M561.42 975.865C560.324 976.022 559.227 976.177 558.129 976.328L552.814 937.595C553.825 937.456 554.834 937.314 555.843 937.169L561.42 975.865Z" fill="white"/>
<path d="M489.999 980.899C490.558 980.9 491.116 980.901 491.674 980.9L491.615 941.804C491.101 941.805 490.586 941.805 490.071 941.804C489.556 941.803 489.041 941.801 488.527 941.798L488.324 980.894C488.882 980.896 489.441 980.898 489.999 980.899Z" fill="white"/>
<path d="M421.887 976.077C420.789 975.922 419.693 975.764 418.597 975.602L424.317 936.927C425.325 937.076 426.334 937.222 427.344 937.364L421.887 976.077Z" fill="white"/>
<path d="M350.338 960.441C351.4 960.758 352.465 961.072 353.53 961.383L364.47 923.849C363.49 923.563 362.512 923.275 361.534 922.982L350.338 960.441Z" fill="white"/>
<path d="M287.988 937.044C286.978 936.584 285.969 936.12 284.962 935.653L301.411 900.187C302.338 900.616 303.266 901.043 304.195 901.466L287.988 937.044Z" fill="white"/>
<path d="M223.802 901.772C224.733 902.378 225.665 902.981 226.6 903.581L247.716 870.678C246.856 870.126 245.998 869.571 245.141 869.013L223.802 901.772Z" fill="white"/>
<path d="M170.594 861.726C169.753 861 168.916 860.27 168.08 859.538L193.849 830.137C194.618 830.811 195.389 831.482 196.163 832.151L170.594 861.726Z" fill="white"/>
<path d="M118.899 809.841C119.622 810.684 120.348 811.524 121.077 812.362L150.574 786.702C149.902 785.931 149.234 785.157 148.568 784.381L118.899 809.841Z" fill="white"/>
<path d="M79.0492 756.486C78.4465 755.553 77.8469 754.618 77.2503 753.681L110.23 732.686C110.779 733.548 111.331 734.409 111.886 735.267L79.0492 756.486Z" fill="white"/>
<path d="M44.0128 692.17C44.4695 693.182 44.9296 694.193 45.3929 695.202L80.9199 678.883C80.4936 677.955 80.0705 677.025 79.6504 676.094L44.0128 692.17Z" fill="white"/>
<path d="M20.8462 629.735C20.5324 628.671 20.2222 627.606 19.9155 626.539L57.4894 615.737C57.7714 616.718 58.0567 617.698 58.3452 618.676L20.8462 629.735Z" fill="white"/>
<path d="M5.473 558.129C5.62369 559.227 5.77801 560.324 5.93596 561.42L44.6318 555.843C44.4865 554.834 44.3445 553.825 44.2058 552.814L5.473 558.129Z" fill="white"/>
</svg>
